<svg width="18" height="18" fill="none" xmlns="http://www.w3.org/2000/svg"><path d="M15.406.04a3.282 3.282 0 0 0-1.543.132 3.14 3.14 0 0 0-1.287.82c-.668.71-.876 1.636-.716 2.563.146.837.338 1.686.382 2.492a8.735 8.735 0 0 1-.572 3.568c-.397 1.033-.961 1.834-2.172 2.011-.09.014-.416.023-.51.028a4.166 4.166 0 0 1-.476-.027c-1.21-.177-1.78-.978-2.176-2.018a8.734 8.734 0 0 1-.572-3.568c.044-.803.236-1.653.382-2.491.16-.928-.048-1.854-.715-2.565A3.142 3.142 0 0 0 4.14.168 3.283 3.283 0 0 0 2.594.04C1.043.28.01 1.589 0 2.962a2.735 2.735 0 0 0 .437 1.5c.483.758 1.276 1.31 1.968 1.883.458.383 1.25 1.47 1.638 2.649.235.714.426 1.437.616 2.167.266 1.018.632 3.266.873 4.286.481 2.043 1.954 2.506 3.43 2.553h.052c1.476-.047 2.973-.51 3.454-2.554.24-1.02.605-3.269.873-4.286.19-.726.381-1.453.616-2.167.389-1.179 1.18-2.27 1.638-2.65.692-.574 1.484-1.124 1.968-1.881.29-.452.441-.972.437-1.5C17.992 1.584 16.962.274 15.406.04Z" fill="#68F7AA"/></svg>
